<svg width="38" height="35" viewBox="0 0 38 35" fill="none" xmlns="http://www.w3.org/2000/svg">
<path d="M34.2 3.8H28.177L24.7 0H13.3L9.823 3.8H3.8C2.79218 3.8 1.82563 4.20036 1.11299 4.91299C0.400356 5.62563 0 6.59218 0 7.6V30.4C0 31.4078 0.400356 32.3744 1.11299 33.087C1.82563 33.7996 2.79218 34.2 3.8 34.2H34.2C35.2078 34.2 36.1744 33.7996 36.887 33.087C37.5996 32.3744 38 31.4078 38 30.4V7.6C38 6.59218 37.5996 5.62563 36.887 4.91299C36.1744 4.20036 35.2078 3.8 34.2 3.8ZM34.2 30.4H3.8V7.6H11.495L14.972 3.8H23.028L26.505 7.6H34.2V30.4ZM19 9.5C16.4804 9.5 14.0641 10.5009 12.2825 12.2825C10.5009 14.0641 9.5 16.4804 9.5 19C9.5 21.5196 10.5009 23.9359 12.2825 25.7175C14.0641 27.4991 16.4804 28.5 19 28.5C21.5196 28.5 23.9359 27.4991 25.7175 25.7175C27.4991 23.9359 28.5 21.5196 28.5 19C28.5 16.4804 27.4991 14.0641 25.7175 12.2825C23.9359 10.5009 21.5196 9.5 19 9.5ZM19 24.7C17.4883 24.7 16.0384 24.0995 14.9695 23.0305C13.9005 21.9616 13.3 20.5117 13.3 19C13.3 17.4883 13.9005 16.0384 14.9695 14.9695C16.0384 13.9005 17.4883 13.3 19 13.3C20.5117 13.3 21.9616 13.9005 23.0305 14.9695C24.0995 16.0384 24.7 17.4883 24.7 19C24.7 20.5117 24.0995 21.9616 23.0305 23.0305C21.9616 24.0995 20.5117 24.7 19 24.7Z" fill="#B23717"/>
</svg>
